HIERARCHY
ROOT Hips
{
	OFFSET 0.000000 0.000000 0.000000
	CHANNELS 6 Xposition Yposition Zposition Zrotation Yrotation Xrotation 
	JOINT LHipJoint
	{
		OFFSET 0.000000 0.000000 0.000000
		CHANNELS 3 Zrotation Yrotation Xrotation
		JOINT LeftUpLeg
		{
			OFFSET 8.178360 -10.767780 5.035740
			CHANNELS 3 Zrotation Yrotation Xrotation
			JOINT LeftLeg
			{
				OFFSET 14.688660 -40.356780 0.000000
				CHANNELS 3 Zrotation Yrotation Xrotation
				JOINT LeftFoot
				{
					OFFSET 15.373200 -42.237540 0.000000
					CHANNELS 3 Zrotation Yrotation Xrotation
					JOINT LeftToeBase
					{
						OFFSET 0.945840 -2.598660 13.935300
						CHANNELS 3 Zrotation Yrotation Xrotation
						End Site
						{
							OFFSET 0.000000 0.000000 0.000000
						}
					}
				}
			}
		}
	}
	JOINT RHipJoint
	{
		OFFSET 0.000000 0.000000 0.000000
		CHANNELS 3 Zrotation Yrotation Xrotation
		JOINT RightUpLeg
		{
			OFFSET -7.833120 -10.767780 5.035740
			CHANNELS 3 Zrotation Yrotation Xrotation
			JOINT RightLeg
			{
				OFFSET -15.255180 -41.913300 0.000000
				CHANNELS 3 Zrotation Yrotation Xrotation
				JOINT RightFoot
				{
					OFFSET -15.409560 -42.337380 0.000000
					CHANNELS 3 Zrotation Yrotation Xrotation
					JOINT RightToeBase
					{
						OFFSET -0.988380 -2.715540 14.178900
						CHANNELS 3 Zrotation Yrotation Xrotation
						End Site
						{
							OFFSET 0.000000 0.000000 0.000000
						}
					}
				}
			}
		}
	}
	JOINT LowerBack
	{
		OFFSET 0.000000 0.000000 0.000000
		CHANNELS 3 Zrotation Yrotation Xrotation
		JOINT Spine
		{
			OFFSET 0.169620 12.213540 -1.160280
			CHANNELS 3 Zrotation Yrotation Xrotation
			JOINT Spine1
			{
				OFFSET 0.340320 12.293100 -0.256500
				CHANNELS 3 Zrotation Yrotation Xrotation
				JOINT Neck
				{
					OFFSET 0.000000 0.000000 0.000000
					CHANNELS 3 Zrotation Yrotation Xrotation
					JOINT Neck1
					{
						OFFSET -0.325020 10.477440 1.032120
						CHANNELS 3 Zrotation Yrotation Xrotation
						JOINT Head
						{
							OFFSET 0.624420 10.568160 -0.743820
							CHANNELS 3 Zrotation Yrotation Xrotation
							End Site
							{
								OFFSET 0.000000 0.000000 0.000000
							}
						}
					}
				}
				JOINT LeftShoulder
				{
					OFFSET 0.000000 0.000000 0.000000
					CHANNELS 3 Zrotation Yrotation Xrotation
					JOINT LeftArm
					{
						OFFSET 20.174460 7.205340 -1.867260
						CHANNELS 3 Zrotation Yrotation Xrotation
						JOINT LeftForeArm
						{
							OFFSET 29.898000 -0.000000 -0.000000
							CHANNELS 3 Zrotation Yrotation Xrotation
							JOINT LeftHand
							{
								OFFSET 20.901360 -0.000000 -0.000000
								CHANNELS 3 Zrotation Yrotation Xrotation
								JOINT LeftFingerBase
								{
									OFFSET 0.000000 0.000000 0.000000
									CHANNELS 3 Zrotation Yrotation Xrotation
									JOINT LeftHandIndex1
									{
										OFFSET 4.291560 -0.000000 -0.000000
										CHANNELS 3 Zrotation Yrotation Xrotation
										End Site
										{
											OFFSET 0.000000 0.000000 0.000000
										}
									}
								}
								JOINT LThumb
								{
									OFFSET 0.000000 0.000000 0.000000
									CHANNELS 3 Zrotation Yrotation Xrotation
									End Site
									{
										OFFSET 0.000000 0.000000 0.000000
									}
								}
							}
						}
					}
				}
				JOINT RightShoulder
				{
					OFFSET 0.000000 0.000000 0.000000
					CHANNELS 3 Zrotation Yrotation Xrotation
					JOINT RightArm
					{
						OFFSET -18.819600 8.244300 -2.427900
						CHANNELS 3 Zrotation Yrotation Xrotation
						JOINT RightForeArm
						{
							OFFSET -31.451400 -0.000000 -0.000000
							CHANNELS 3 Zrotation Yrotation Xrotation
							JOINT RightHand
							{
								OFFSET -20.665020 -0.000000 -0.000000
								CHANNELS 3 Zrotation Yrotation Xrotation
								JOINT RightFingerBase
								{
									OFFSET 0.000000 0.000000 0.000000
									CHANNELS 3 Zrotation Yrotation Xrotation
									JOINT RightHandIndex1
									{
										OFFSET -3.735180 -0.000000 -0.000000
										CHANNELS 3 Zrotation Yrotation Xrotation
										End Site
										{
											OFFSET 0.000000 0.000000 0.000000
										}
									}
								}
								JOINT RThumb
								{
									OFFSET 0.000000 0.000000 0.000000
									CHANNELS 3 Zrotation Yrotation Xrotation
									End Site
									{
										OFFSET 0.000000 0.000000 0.000000
									}
								}
							}
						}
					}
				}
			}
		}
	}
}
MOTION
Frames:	5
Frame Time:	0.0333333
-69.214752 104.488002 -211.111386 -5.495622 -14.028170 5.061534 -0.812576 0.502253 1.758799 -20.117283 -1.613678 -18.720790 20.396763 19.556949 90.286930 -1.048635 7.572974 16.609821 0.496500 -4.517400 -12.537000 -0.152089 -0.136366 0.118336 20.548964 6.560723 -29.179799 -5.079446 -14.793410 45.114883 0.147270 -3.134765 2.715230 -0.365700 3.884300 -10.751400 1.613003 -1.859520 16.759121 2.609139 -1.549579 -2.544535 9.830830 -0.640051 -6.998468 -12.182657 2.231122 -8.460428 2.883037 5.033223 7.181222 3.768200 1.759200 6.183200 -2.347170 2.117278 -3.515872 -88.943215 18.272221 29.247251 63.818957 -57.571865 -48.290539 -0.886737 -2.541536 -17.516610 20.376643 4.302534 2.627700 -7.125000 0.000000 0.000000 -4.013500 36.977700 0.793700 1.111002 -1.365201 -1.757262 70.337849 -11.841067 45.488498 -95.680245 61.557245 -73.701927 2.532393 -0.592530 -6.118314 -18.723802 26.570924 -9.987900 7.125000 0.000000 0.000000 5.339100 -1.354800 5.234300 
-68.787168 103.714278 -196.936164 -7.187540 -12.198305 5.493770 -0.402236 0.075947 0.802611 -14.793369 -5.118410 -29.538153 21.060125 20.366501 92.577892 -0.189617 2.887082 14.081897 0.044200 -1.357000 -3.731800 0.110313 -0.609436 1.029057 21.177746 6.234419 -19.828247 -4.907480 -13.996158 43.971200 1.777284 -7.903763 -5.229835 -1.142100 6.786600 -19.084700 3.137889 -1.073951 16.915070 2.727258 -0.231582 -2.495435 9.521663 0.103748 -7.312565 -11.614244 1.201156 -7.811923 2.663115 3.470892 7.193676 3.426500 1.011800 6.237200 -2.168137 2.143105 -3.771562 -89.093582 22.597805 29.372165 62.695831 -57.429709 -47.347479 -0.926725 -2.467246 -16.534701 19.654033 3.534237 2.211300 -7.125000 0.000000 0.000000 -4.560800 36.053100 1.005700 1.106551 -1.236153 -1.524219 73.013989 -5.225727 47.069672 -100.947024 61.386438 -77.442781 2.363081 -0.745086 -3.471296 -19.131090 26.202864 -10.016700 7.125000 0.000000 0.000000 5.141900 -1.632800 5.013700 
-67.962534 104.854500 -181.896228 -7.915455 -9.527648 6.742315 -0.105024 -0.421479 -0.179233 -12.004660 -8.227322 -38.700847 18.545110 21.139654 84.210764 -1.674897 7.632406 9.079636 0.298700 -3.514200 -9.713700 0.639151 -1.202790 2.177197 20.536553 5.052527 -9.774372 -3.533698 -12.077488 38.098332 3.387649 -11.919241 -3.643492 -2.566400 9.957600 -28.839400 5.328659 0.702797 14.958513 2.241229 2.119810 -2.464081 5.887134 1.319724 -6.338722 -9.306394 -1.382157 -8.515221 3.163165 -0.394437 7.332558 3.099500 -0.693400 6.827500 -2.000680 2.419659 -3.685255 -84.425727 25.547988 35.877387 68.780348 -59.711527 -53.218910 -0.542206 -2.384008 -22.233000 17.024797 3.489772 1.840600 -7.125000 0.000000 0.000000 -6.894200 35.733500 1.579300 0.607759 -1.321440 -1.355368 78.624585 -3.782575 44.432036 -113.079135 59.703808 -85.741954 2.088553 -0.850467 -8.342904 -19.092955 26.432165 -9.998200 7.125000 0.000000 0.000000 5.445200 -1.138600 5.360300 
-66.310734 106.842900 -166.124562 -8.092250 -6.876470 6.954600 -0.525875 -0.768670 -1.025574 -11.021032 -10.764735 -40.685969 12.148890 20.150258 65.763174 -2.360380 9.644569 7.410188 0.349100 -3.796400 -10.504500 1.189597 -1.935290 3.434989 18.583876 4.122463 0.142384 -2.187035 -9.933434 31.176148 3.263140 -12.283797 8.667846 -2.911700 10.550800 -30.779500 7.324413 2.688840 14.398335 1.751515 4.831674 -2.382704 2.643380 2.740303 -5.362098 -7.553097 -4.211589 -10.970781 3.297008 -4.407215 7.572181 2.508300 -2.493800 7.974200 -1.959017 2.595484 -3.602722 -81.013885 25.773146 42.689272 71.375661 -60.579583 -55.535481 -0.475850 -2.289931 -21.569178 15.942505 3.358636 1.656400 -7.125000 0.000000 0.000000 -7.869500 35.483600 1.854400 0.295355 -1.294792 -1.340133 81.275362 -3.403293 42.084637 -121.712109 57.191026 -91.628104 1.972941 -1.182250 -9.428910 -19.623903 28.283820 -10.909600 7.125000 0.000000 0.000000 5.516700 1.201300 5.657200 
-64.377690 108.633414 -149.609076 -7.888445 -4.528692 6.720263 -2.012747 -1.172596 -1.756069 -10.092910 -11.580104 -37.689676 4.243370 15.636554 42.169920 -0.736984 7.699195 18.758064 0.224000 -3.046700 -8.408900 2.123191 -2.721146 4.712244 15.655803 4.895178 7.673972 -1.592234 -8.591422 25.073012 0.569753 -16.298202 34.345400 -0.200500 2.883100 -7.953500 7.951380 2.885221 13.194059 1.633550 4.993073 -2.567447 2.104901 3.007008 -5.779332 -7.407605 -5.001705 -9.981229 3.479778 -5.587808 8.153393 2.464000 -3.054900 8.186900 -1.909239 2.864074 -3.760367 -82.006673 28.528352 43.492293 71.975959 -60.845570 -56.069467 -0.475597 -2.258436 -19.735823 15.563888 3.579055 1.679200 -7.125000 0.000000 0.000000 -8.273900 35.698300 1.907600 0.159503 -1.196368 -1.282538 80.853515 -6.519013 44.848770 -123.252838 56.648398 -92.673661 1.753047 -1.265162 -5.967073 -18.499183 26.983114 -9.817800 7.125000 0.000000 0.000000 6.094700 -0.374500 6.089300 
